{
	"patcher" : 	{
		"fileversion" : 1,
		"rect" : [ 16.0, 44.0, 1189.0, 668.0 ],
		"bglocked" : 0,
		"defrect" : [ 16.0, 44.0, 1189.0, 668.0 ],
		"openrect" : [ 0.0, 0.0, 0.0, 0.0 ],
		"openinpresentation" : 0,
		"default_fontsize" : 10.0,
		"default_fontface" : 0,
		"default_fontname" : "Arial Bold",
		"gridonopen" : 0,
		"gridsize" : [ 4.0, 4.0 ],
		"gridsnaponopen" : 0,
		"toolbarvisible" : 1,
		"boxanimatetime" : 200,
		"imprint" : 0,
		"enablehscroll" : 1,
		"enablevscroll" : 1,
		"devicewidth" : 0.0,
		"boxes" : [ 			{
				"box" : 				{
					"maxclass" : "newobj",
					"text" : "prepend id",
					"id" : "obj-7",
					"fontname" : "Arial Bold",
					"fontsize" : 10.0,
					"numinlets" : 1,
					"numoutlets" : 1,
					"outlettype" : [ "" ],
					"patching_rect" : [ 144.0, 44.0, 62.0, 18.0 ]
				}

			}
, 			{
				"box" : 				{
					"maxclass" : "newobj",
					"text" : "route id",
					"id" : "obj-6",
					"fontname" : "Arial Bold",
					"fontsize" : 10.0,
					"numinlets" : 1,
					"numoutlets" : 2,
					"outlettype" : [ "", "" ],
					"patching_rect" : [ 144.0, 24.0, 47.0, 18.0 ]
				}

			}
, 			{
				"box" : 				{
					"maxclass" : "newobj",
					"text" : "prepend track_name",
					"id" : "obj-5",
					"fontname" : "Arial Bold",
					"fontsize" : 10.0,
					"numinlets" : 1,
					"numoutlets" : 1,
					"outlettype" : [ "" ],
					"patching_rect" : [ 348.0, 528.0, 108.0, 18.0 ]
				}

			}
, 			{
				"box" : 				{
					"maxclass" : "newobj",
					"text" : "prepend device_name",
					"id" : "obj-4",
					"fontname" : "Arial Bold",
					"fontsize" : 10.0,
					"numinlets" : 1,
					"numoutlets" : 1,
					"outlettype" : [ "" ],
					"patching_rect" : [ 284.0, 488.0, 116.0, 18.0 ]
				}

			}
, 			{
				"box" : 				{
					"maxclass" : "newobj",
					"text" : "prepend parameter_name",
					"id" : "obj-1",
					"fontname" : "Arial Bold",
					"fontsize" : 10.0,
					"numinlets" : 1,
					"numoutlets" : 1,
					"outlettype" : [ "" ],
					"patching_rect" : [ 184.0, 524.0, 133.0, 18.0 ]
				}

			}
, 			{
				"box" : 				{
					"maxclass" : "newobj",
					"text" : "sel 1",
					"id" : "obj-63",
					"fontname" : "Arial Bold",
					"fontsize" : 10.0,
					"numinlets" : 2,
					"numoutlets" : 2,
					"outlettype" : [ "bang", "" ],
					"patching_rect" : [ 208.0, 252.0, 33.0, 18.0 ]
				}

			}
, 			{
				"box" : 				{
					"maxclass" : "newobj",
					"text" : "> 0",
					"id" : "obj-59",
					"fontname" : "Arial Bold",
					"fontsize" : 10.0,
					"numinlets" : 2,
					"numoutlets" : 1,
					"outlettype" : [ "int" ],
					"patching_rect" : [ 208.0, 228.0, 32.5, 18.0 ]
				}

			}
, 			{
				"box" : 				{
					"maxclass" : "message",
					"text" : "get min, get max, get name, getpath",
					"id" : "obj-52",
					"fontname" : "Arial Bold",
					"fontsize" : 10.0,
					"numinlets" : 2,
					"numoutlets" : 1,
					"outlettype" : [ "" ],
					"patching_rect" : [ 128.0, 140.0, 181.0, 16.0 ]
				}

			}
, 			{
				"box" : 				{
					"maxclass" : "newobj",
					"text" : "gprint debug P.CVR.NS:object.out",
					"id" : "obj-32",
					"fontname" : "Arial Bold",
					"fontsize" : 10.0,
					"numinlets" : 2,
					"numoutlets" : 0,
					"patching_rect" : [ 60.0, 300.0, 171.0, 18.0 ]
				}

			}
, 			{
				"box" : 				{
					"maxclass" : "newobj",
					"text" : "prepend id",
					"color" : [ 0.976471, 0.823529, 0.054902, 1.0 ],
					"id" : "obj-21",
					"fontname" : "Arial Bold",
					"fontsize" : 10.0,
					"numinlets" : 1,
					"numoutlets" : 1,
					"outlettype" : [ "" ],
					"patching_rect" : [ 244.0, 228.0, 62.0, 18.0 ]
				}

			}
, 			{
				"box" : 				{
					"maxclass" : "newobj",
					"text" : "r ---initbang",
					"id" : "obj-8",
					"fontname" : "Arial Bold",
					"fontsize" : 10.0,
					"numinlets" : 0,
					"numoutlets" : 1,
					"outlettype" : [ "" ],
					"patching_rect" : [ 80.0, 76.0, 66.0, 18.0 ]
				}

			}
, 			{
				"box" : 				{
					"maxclass" : "newobj",
					"text" : "route",
					"color" : [ 1.0, 0.34902, 0.0, 1.0 ],
					"id" : "obj-72",
					"fontname" : "Arial Bold",
					"fontsize" : 10.0,
					"numinlets" : 1,
					"numoutlets" : 2,
					"outlettype" : [ "", "" ],
					"patching_rect" : [ 264.0, 288.0, 38.0, 18.0 ]
				}

			}
, 			{
				"box" : 				{
					"maxclass" : "newobj",
					"text" : "M4L.api.FG.Get.ParentDeviceName_dbg",
					"color" : [ 0.317647, 0.709804, 0.321569, 1.0 ],
					"id" : "obj-34",
					"fontname" : "Arial Bold",
					"fontsize" : 10.0,
					"numinlets" : 1,
					"numoutlets" : 2,
					"outlettype" : [ "", "" ],
					"patching_rect" : [ 448.0, 376.0, 201.0, 18.0 ]
				}

			}
, 			{
				"box" : 				{
					"maxclass" : "newobj",
					"text" : "prepend path",
					"id" : "obj-48",
					"fontname" : "Arial Bold",
					"fontsize" : 10.0,
					"numinlets" : 1,
					"numoutlets" : 1,
					"outlettype" : [ "" ],
					"patching_rect" : [ 448.0, 356.0, 73.0, 18.0 ]
				}

			}
, 			{
				"box" : 				{
					"maxclass" : "newobj",
					"text" : "deferlow",
					"id" : "obj-3",
					"fontname" : "Arial Bold",
					"fontsize" : 10.0,
					"numinlets" : 1,
					"numoutlets" : 1,
					"outlettype" : [ "" ],
					"patching_rect" : [ 100.0, 160.0, 65.0, 18.0 ]
				}

			}
, 			{
				"box" : 				{
					"maxclass" : "newobj",
					"text" : "M4L.api.FG.Get.ParentDeviceName_dbg",
					"color" : [ 0.317647, 0.709804, 0.321569, 1.0 ],
					"id" : "obj-74",
					"fontname" : "Arial Bold",
					"fontsize" : 10.0,
					"numinlets" : 1,
					"numoutlets" : 2,
					"outlettype" : [ "", "" ],
					"patching_rect" : [ 284.0, 332.0, 201.0, 18.0 ]
				}

			}
, 			{
				"box" : 				{
					"maxclass" : "newobj",
					"text" : "prepend path",
					"color" : [ 1.0, 0.34902, 0.0, 1.0 ],
					"id" : "obj-2",
					"fontname" : "Arial Bold",
					"fontsize" : 10.0,
					"numinlets" : 1,
					"numoutlets" : 1,
					"outlettype" : [ "" ],
					"patching_rect" : [ 284.0, 312.0, 73.0, 18.0 ]
				}

			}
, 			{
				"box" : 				{
					"maxclass" : "newobj",
					"text" : "scale 0. 1. 0. 1.",
					"id" : "obj-53",
					"fontname" : "Arial Bold",
					"fontsize" : 10.0,
					"numinlets" : 6,
					"numoutlets" : 1,
					"outlettype" : [ "" ],
					"patching_rect" : [ 0.0, 460.0, 299.5, 18.0 ]
				}

			}
, 			{
				"box" : 				{
					"maxclass" : "newobj",
					"text" : "live.remote~",
					"color" : [ 0.984314, 0.819608, 0.05098, 1.0 ],
					"id" : "obj-36",
					"fontname" : "Arial Bold",
					"fontsize" : 10.0,
					"numinlets" : 2,
					"numoutlets" : 0,
					"patching_rect" : [ 684.0, 484.0, 75.0, 18.0 ],
					"saved_object_attributes" : 					{
						"_persistence" : 0
					}

				}

			}
, 			{
				"box" : 				{
					"maxclass" : "flonum",
					"id" : "obj-31",
					"fontname" : "Arial Bold",
					"bordercolor" : [ 0.478431, 0.709804, 0.317647, 1.0 ],
					"fontsize" : 10.0,
					"numinlets" : 1,
					"numoutlets" : 2,
					"outlettype" : [ "float", "bang" ],
					"patching_rect" : [ 224.0, 408.0, 50.0, 18.0 ]
				}

			}
, 			{
				"box" : 				{
					"maxclass" : "flonum",
					"id" : "obj-30",
					"fontname" : "Arial Bold",
					"bordercolor" : [ 0.87451, 0.25098, 0.717647, 1.0 ],
					"fontsize" : 10.0,
					"numinlets" : 1,
					"numoutlets" : 2,
					"outlettype" : [ "float", "bang" ],
					"patching_rect" : [ 168.0, 408.0, 50.0, 18.0 ]
				}

			}
, 			{
				"box" : 				{
					"maxclass" : "newobj",
					"text" : "route min max path name id",
					"id" : "obj-29",
					"fontname" : "Arial Bold",
					"fontsize" : 10.0,
					"numinlets" : 1,
					"numoutlets" : 6,
					"outlettype" : [ "", "", "", "", "", "" ],
					"patching_rect" : [ 108.0, 204.0, 143.0, 18.0 ]
				}

			}
, 			{
				"box" : 				{
					"maxclass" : "newobj",
					"text" : "t b l",
					"id" : "obj-28",
					"fontname" : "Arial Bold",
					"fontsize" : 10.0,
					"numinlets" : 1,
					"numoutlets" : 2,
					"outlettype" : [ "bang", "" ],
					"patching_rect" : [ 100.0, 100.0, 211.0, 18.0 ]
				}

			}
, 			{
				"box" : 				{
					"maxclass" : "message",
					"text" : "getid",
					"id" : "obj-26",
					"fontname" : "Arial Bold",
					"fontsize" : 10.0,
					"numinlets" : 2,
					"numoutlets" : 1,
					"outlettype" : [ "" ],
					"patching_rect" : [ 100.0, 124.0, 34.0, 16.0 ]
				}

			}
, 			{
				"box" : 				{
					"maxclass" : "newobj",
					"text" : "live.object",
					"color" : [ 0.984314, 0.819608, 0.05098, 1.0 ],
					"id" : "obj-18",
					"fontname" : "Arial Bold",
					"fontsize" : 10.0,
					"numinlets" : 2,
					"numoutlets" : 1,
					"outlettype" : [ "" ],
					"patching_rect" : [ 100.0, 180.0, 211.0, 18.0 ],
					"saved_object_attributes" : 					{
						"_persistence" : 1
					}

				}

			}
, 			{
				"box" : 				{
					"maxclass" : "comment",
					"text" : "param\nmin val",
					"linecount" : 2,
					"id" : "obj-38",
					"fontname" : "Arial Bold",
					"bgcolor" : [ 0.87451, 0.25098, 0.717647, 0.501961 ],
					"fontsize" : 10.0,
					"numinlets" : 1,
					"numoutlets" : 0,
					"patching_rect" : [ 176.0, 428.0, 48.0, 29.0 ]
				}

			}
, 			{
				"box" : 				{
					"maxclass" : "comment",
					"text" : "param\nmax val",
					"linecount" : 2,
					"id" : "obj-39",
					"fontname" : "Arial Bold",
					"bgcolor" : [ 0.478431, 0.709804, 0.317647, 0.501961 ],
					"fontsize" : 10.0,
					"numinlets" : 1,
					"numoutlets" : 0,
					"patching_rect" : [ 232.0, 428.0, 48.0, 29.0 ]
				}

			}
, 			{
				"box" : 				{
					"maxclass" : "comment",
					"text" : "control\nval",
					"linecount" : 2,
					"id" : "obj-11",
					"fontname" : "Arial Bold",
					"bgcolor" : [ 0.678431, 0.819608, 0.819608, 0.501961 ],
					"fontsize" : 10.0,
					"numinlets" : 1,
					"numoutlets" : 0,
					"patching_rect" : [ 8.0, 428.0, 51.0, 29.0 ]
				}

			}
, 			{
				"box" : 				{
					"maxclass" : "inlet",
					"id" : "obj-93",
					"numinlets" : 0,
					"numoutlets" : 1,
					"outlettype" : [ "" ],
					"patching_rect" : [ 0.0, 4.0, 25.0, 25.0 ],
					"comment" : ""
				}

			}
, 			{
				"box" : 				{
					"maxclass" : "inlet",
					"id" : "obj-94",
					"numinlets" : 0,
					"numoutlets" : 1,
					"outlettype" : [ "" ],
					"patching_rect" : [ 100.0, 4.0, 25.0, 25.0 ],
					"comment" : ""
				}

			}
, 			{
				"box" : 				{
					"maxclass" : "outlet",
					"id" : "obj-96",
					"numinlets" : 1,
					"numoutlets" : 0,
					"patching_rect" : [ 182.0, 562.0, 25.0, 25.0 ],
					"comment" : "Output names with prepended markers for [route]"
				}

			}
 ],
		"lines" : [ 			{
				"patchline" : 				{
					"source" : [ "obj-7", 0 ],
					"destination" : [ "obj-28", 0 ],
					"hidden" : 0,
					"midpoints" : [  ]
				}

			}
, 			{
				"patchline" : 				{
					"source" : [ "obj-6", 0 ],
					"destination" : [ "obj-7", 0 ],
					"hidden" : 0,
					"midpoints" : [  ]
				}

			}
, 			{
				"patchline" : 				{
					"source" : [ "obj-94", 0 ],
					"destination" : [ "obj-6", 0 ],
					"hidden" : 0,
					"midpoints" : [  ]
				}

			}
, 			{
				"patchline" : 				{
					"source" : [ "obj-5", 0 ],
					"destination" : [ "obj-96", 0 ],
					"hidden" : 0,
					"midpoints" : [  ]
				}

			}
, 			{
				"patchline" : 				{
					"source" : [ "obj-34", 0 ],
					"destination" : [ "obj-5", 0 ],
					"hidden" : 0,
					"midpoints" : [  ]
				}

			}
, 			{
				"patchline" : 				{
					"source" : [ "obj-4", 0 ],
					"destination" : [ "obj-96", 0 ],
					"hidden" : 0,
					"midpoints" : [  ]
				}

			}
, 			{
				"patchline" : 				{
					"source" : [ "obj-74", 0 ],
					"destination" : [ "obj-4", 0 ],
					"hidden" : 0,
					"midpoints" : [  ]
				}

			}
, 			{
				"patchline" : 				{
					"source" : [ "obj-1", 0 ],
					"destination" : [ "obj-96", 0 ],
					"hidden" : 0,
					"midpoints" : [  ]
				}

			}
, 			{
				"patchline" : 				{
					"source" : [ "obj-29", 3 ],
					"destination" : [ "obj-1", 0 ],
					"hidden" : 0,
					"midpoints" : [  ]
				}

			}
, 			{
				"patchline" : 				{
					"source" : [ "obj-63", 0 ],
					"destination" : [ "obj-52", 0 ],
					"hidden" : 0,
					"midpoints" : [ 217.5, 276.0, 318.5, 276.0, 318.5, 126.0, 137.5, 126.0 ]
				}

			}
, 			{
				"patchline" : 				{
					"source" : [ "obj-52", 0 ],
					"destination" : [ "obj-3", 0 ],
					"hidden" : 0,
					"midpoints" : [  ]
				}

			}
, 			{
				"patchline" : 				{
					"source" : [ "obj-59", 0 ],
					"destination" : [ "obj-63", 0 ],
					"hidden" : 0,
					"midpoints" : [  ]
				}

			}
, 			{
				"patchline" : 				{
					"source" : [ "obj-29", 4 ],
					"destination" : [ "obj-59", 0 ],
					"hidden" : 0,
					"midpoints" : [  ]
				}

			}
, 			{
				"patchline" : 				{
					"source" : [ "obj-18", 0 ],
					"destination" : [ "obj-32", 0 ],
					"hidden" : 0,
					"color" : [ 0.67451, 0.819608, 0.572549, 1.0 ],
					"midpoints" : [  ]
				}

			}
, 			{
				"patchline" : 				{
					"source" : [ "obj-29", 4 ],
					"destination" : [ "obj-21", 0 ],
					"hidden" : 0,
					"color" : [ 0.976471, 0.823529, 0.054902, 1.0 ],
					"midpoints" : [ 216.699997, 224.5, 253.5, 224.5 ]
				}

			}
, 			{
				"patchline" : 				{
					"source" : [ "obj-21", 0 ],
					"destination" : [ "obj-36", 1 ],
					"hidden" : 0,
					"color" : [ 0.984314, 0.819608, 0.05098, 1.0 ],
					"midpoints" : [ 253.5, 280.5, 749.5, 280.5 ]
				}

			}
, 			{
				"patchline" : 				{
					"source" : [ "obj-18", 0 ],
					"destination" : [ "obj-29", 0 ],
					"hidden" : 0,
					"color" : [ 0.984314, 0.819608, 0.05098, 1.0 ],
					"midpoints" : [ 109.5, 199.0, 117.5, 199.0 ]
				}

			}
, 			{
				"patchline" : 				{
					"source" : [ "obj-29", 0 ],
					"destination" : [ "obj-30", 0 ],
					"hidden" : 0,
					"color" : [ 0.87451, 0.25098, 0.717647, 1.0 ],
					"midpoints" : [ 117.5, 352.5, 177.5, 352.5 ]
				}

			}
, 			{
				"patchline" : 				{
					"source" : [ "obj-29", 1 ],
					"destination" : [ "obj-31", 0 ],
					"hidden" : 0,
					"color" : [ 0.478431, 0.709804, 0.317647, 1.0 ],
					"midpoints" : [ 142.300003, 348.5, 233.5, 348.5 ]
				}

			}
, 			{
				"patchline" : 				{
					"source" : [ "obj-29", 2 ],
					"destination" : [ "obj-72", 0 ],
					"hidden" : 0,
					"color" : [ 1.0, 0.34902, 0.0, 1.0 ],
					"midpoints" : [ 167.100006, 284.5, 273.5, 284.5 ]
				}

			}
, 			{
				"patchline" : 				{
					"source" : [ "obj-8", 0 ],
					"destination" : [ "obj-26", 0 ],
					"hidden" : 0,
					"midpoints" : [ 89.5, 120.5, 109.5, 120.5 ]
				}

			}
, 			{
				"patchline" : 				{
					"source" : [ "obj-72", 1 ],
					"destination" : [ "obj-2", 0 ],
					"hidden" : 0,
					"color" : [ 1.0, 0.34902, 0.0, 1.0 ],
					"midpoints" : [  ]
				}

			}
, 			{
				"patchline" : 				{
					"source" : [ "obj-74", 1 ],
					"destination" : [ "obj-48", 0 ],
					"hidden" : 0,
					"midpoints" : [ 475.5, 354.0, 457.5, 354.0 ]
				}

			}
, 			{
				"patchline" : 				{
					"source" : [ "obj-2", 0 ],
					"destination" : [ "obj-74", 0 ],
					"hidden" : 0,
					"midpoints" : [  ]
				}

			}
, 			{
				"patchline" : 				{
					"source" : [ "obj-48", 0 ],
					"destination" : [ "obj-34", 0 ],
					"hidden" : 0,
					"midpoints" : [  ]
				}

			}
, 			{
				"patchline" : 				{
					"source" : [ "obj-3", 0 ],
					"destination" : [ "obj-18", 0 ],
					"hidden" : 0,
					"midpoints" : [  ]
				}

			}
, 			{
				"patchline" : 				{
					"source" : [ "obj-26", 0 ],
					"destination" : [ "obj-3", 0 ],
					"hidden" : 0,
					"midpoints" : [  ]
				}

			}
, 			{
				"patchline" : 				{
					"source" : [ "obj-28", 1 ],
					"destination" : [ "obj-18", 1 ],
					"hidden" : 0,
					"color" : [ 0.984314, 0.819608, 0.05098, 1.0 ],
					"midpoints" : [  ]
				}

			}
, 			{
				"patchline" : 				{
					"source" : [ "obj-28", 0 ],
					"destination" : [ "obj-26", 0 ],
					"hidden" : 0,
					"midpoints" : [  ]
				}

			}
, 			{
				"patchline" : 				{
					"source" : [ "obj-31", 0 ],
					"destination" : [ "obj-53", 4 ],
					"hidden" : 0,
					"color" : [ 0.478431, 0.709804, 0.317647, 1.0 ],
					"midpoints" : [ 233.5, 442.5, 233.899994, 442.5 ]
				}

			}
, 			{
				"patchline" : 				{
					"source" : [ "obj-30", 0 ],
					"destination" : [ "obj-53", 3 ],
					"hidden" : 0,
					"color" : [ 0.87451, 0.25098, 0.717647, 1.0 ],
					"midpoints" : [ 177.5, 442.5, 177.800003, 442.5 ]
				}

			}
, 			{
				"patchline" : 				{
					"source" : [ "obj-53", 0 ],
					"destination" : [ "obj-36", 0 ],
					"hidden" : 0,
					"midpoints" : [ 9.5, 480.0, 693.5, 480.0 ]
				}

			}
, 			{
				"patchline" : 				{
					"source" : [ "obj-93", 0 ],
					"destination" : [ "obj-53", 0 ],
					"hidden" : 0,
					"midpoints" : [  ]
				}

			}
 ]
	}

}
