{
	"patcher" : 	{
		"fileversion" : 1,
		"rect" : [ 16.0, 44.0, 591.0, 547.0 ],
		"bglocked" : 0,
		"defrect" : [ 16.0, 44.0, 591.0, 547.0 ],
		"openrect" : [ 0.0, 0.0, 0.0, 0.0 ],
		"openinpresentation" : 0,
		"default_fontsize" : 10.0,
		"default_fontface" : 0,
		"default_fontname" : "Arial Bold",
		"gridonopen" : 0,
		"gridsize" : [ 4.0, 4.0 ],
		"gridsnaponopen" : 0,
		"toolbarvisible" : 1,
		"boxanimatetime" : 200,
		"imprint" : 0,
		"enablehscroll" : 1,
		"enablevscroll" : 1,
		"devicewidth" : 0.0,
		"boxes" : [ 			{
				"box" : 				{
					"maxclass" : "newobj",
					"text" : "prepend id",
					"id" : "obj-7",
					"fontname" : "Arial Bold",
					"fontsize" : 10.0,
					"numinlets" : 1,
					"numoutlets" : 1,
					"outlettype" : [ "" ],
					"patching_rect" : [ 88.0, 56.0, 62.0, 18.0 ]
				}

			}
, 			{
				"box" : 				{
					"maxclass" : "newobj",
					"text" : "route id",
					"id" : "obj-6",
					"fontname" : "Arial Bold",
					"fontsize" : 10.0,
					"numinlets" : 1,
					"numoutlets" : 2,
					"outlettype" : [ "", "" ],
					"patching_rect" : [ 88.0, 36.0, 47.0, 18.0 ]
				}

			}
, 			{
				"box" : 				{
					"maxclass" : "newobj",
					"text" : "prepend track_name",
					"id" : "obj-5",
					"fontname" : "Arial Bold",
					"fontsize" : 10.0,
					"numinlets" : 1,
					"numoutlets" : 1,
					"outlettype" : [ "" ],
					"patching_rect" : [ 348.0, 420.0, 108.0, 18.0 ]
				}

			}
, 			{
				"box" : 				{
					"maxclass" : "newobj",
					"text" : "prepend device_name",
					"id" : "obj-4",
					"fontname" : "Arial Bold",
					"fontsize" : 10.0,
					"numinlets" : 1,
					"numoutlets" : 1,
					"outlettype" : [ "" ],
					"patching_rect" : [ 164.0, 376.0, 116.0, 18.0 ]
				}

			}
, 			{
				"box" : 				{
					"maxclass" : "newobj",
					"text" : "prepend parameter_name",
					"id" : "obj-1",
					"fontname" : "Arial Bold",
					"fontsize" : 10.0,
					"numinlets" : 1,
					"numoutlets" : 1,
					"outlettype" : [ "" ],
					"patching_rect" : [ 172.0, 264.0, 133.0, 18.0 ]
				}

			}
, 			{
				"box" : 				{
					"maxclass" : "newobj",
					"text" : "sel 1",
					"id" : "obj-63",
					"fontname" : "Arial Bold",
					"fontsize" : 10.0,
					"numinlets" : 2,
					"numoutlets" : 2,
					"outlettype" : [ "bang", "" ],
					"patching_rect" : [ 188.0, 228.0, 33.0, 18.0 ]
				}

			}
, 			{
				"box" : 				{
					"maxclass" : "newobj",
					"text" : "> 0",
					"id" : "obj-59",
					"fontname" : "Arial Bold",
					"fontsize" : 10.0,
					"numinlets" : 2,
					"numoutlets" : 1,
					"outlettype" : [ "int" ],
					"patching_rect" : [ 188.0, 204.0, 32.5, 18.0 ]
				}

			}
, 			{
				"box" : 				{
					"maxclass" : "message",
					"text" : "get min, get max, get name, getpath",
					"id" : "obj-52",
					"fontname" : "Arial Bold",
					"fontsize" : 10.0,
					"numinlets" : 2,
					"numoutlets" : 1,
					"outlettype" : [ "" ],
					"patching_rect" : [ 116.0, 116.0, 181.0, 16.0 ]
				}

			}
, 			{
				"box" : 				{
					"maxclass" : "newobj",
					"text" : "gprint debug P.CVR.NS:object.out",
					"color" : [ 0.67451, 0.819608, 0.572549, 1.0 ],
					"id" : "obj-32",
					"fontname" : "Arial Bold",
					"fontsize" : 10.0,
					"numinlets" : 2,
					"numoutlets" : 0,
					"patching_rect" : [ 256.0, 180.0, 171.0, 18.0 ]
				}

			}
, 			{
				"box" : 				{
					"maxclass" : "newobj",
					"text" : "prepend id",
					"color" : [ 0.976471, 0.823529, 0.054902, 1.0 ],
					"id" : "obj-21",
					"fontname" : "Arial Bold",
					"fontsize" : 10.0,
					"numinlets" : 1,
					"numoutlets" : 1,
					"outlettype" : [ "" ],
					"patching_rect" : [ 224.0, 204.0, 62.0, 18.0 ]
				}

			}
, 			{
				"box" : 				{
					"maxclass" : "newobj",
					"text" : "r ---initbang",
					"color" : [ 0.239216, 0.643137, 0.709804, 1.0 ],
					"id" : "obj-8",
					"fontname" : "Arial Bold",
					"fontsize" : 10.0,
					"numinlets" : 0,
					"numoutlets" : 1,
					"outlettype" : [ "" ],
					"patching_rect" : [ 16.0, 76.0, 66.0, 18.0 ]
				}

			}
, 			{
				"box" : 				{
					"maxclass" : "newobj",
					"text" : "route",
					"color" : [ 1.0, 0.34902, 0.0, 1.0 ],
					"id" : "obj-72",
					"fontname" : "Arial Bold",
					"fontsize" : 10.0,
					"numinlets" : 1,
					"numoutlets" : 2,
					"outlettype" : [ "", "" ],
					"patching_rect" : [ 144.0, 316.0, 38.0, 18.0 ]
				}

			}
, 			{
				"box" : 				{
					"maxclass" : "newobj",
					"text" : "M4L.api.FG.Get.ParentDeviceName_dbg",
					"color" : [ 0.317647, 0.709804, 0.321569, 1.0 ],
					"id" : "obj-34",
					"fontname" : "Arial Bold",
					"fontsize" : 10.0,
					"numinlets" : 1,
					"numoutlets" : 2,
					"outlettype" : [ "", "" ],
					"patching_rect" : [ 348.0, 400.0, 201.0, 18.0 ]
				}

			}
, 			{
				"box" : 				{
					"maxclass" : "newobj",
					"text" : "prepend path",
					"color" : [ 1.0, 0.34902, 0.0, 1.0 ],
					"id" : "obj-48",
					"fontname" : "Arial Bold",
					"fontsize" : 10.0,
					"numinlets" : 1,
					"numoutlets" : 1,
					"outlettype" : [ "" ],
					"patching_rect" : [ 348.0, 376.0, 73.0, 18.0 ]
				}

			}
, 			{
				"box" : 				{
					"maxclass" : "newobj",
					"text" : "deferlow",
					"id" : "obj-3",
					"fontname" : "Arial Bold",
					"fontsize" : 10.0,
					"numinlets" : 1,
					"numoutlets" : 1,
					"outlettype" : [ "" ],
					"patching_rect" : [ 88.0, 136.0, 65.0, 18.0 ]
				}

			}
, 			{
				"box" : 				{
					"maxclass" : "newobj",
					"text" : "M4L.api.FG.Get.ParentDeviceName_dbg",
					"color" : [ 0.317647, 0.709804, 0.321569, 1.0 ],
					"id" : "obj-74",
					"fontname" : "Arial Bold",
					"fontsize" : 10.0,
					"numinlets" : 1,
					"numoutlets" : 2,
					"outlettype" : [ "", "" ],
					"patching_rect" : [ 164.0, 356.0, 203.0, 18.0 ]
				}

			}
, 			{
				"box" : 				{
					"maxclass" : "newobj",
					"text" : "prepend path",
					"color" : [ 1.0, 0.34902, 0.0, 1.0 ],
					"id" : "obj-2",
					"fontname" : "Arial Bold",
					"fontsize" : 10.0,
					"numinlets" : 1,
					"numoutlets" : 1,
					"outlettype" : [ "" ],
					"patching_rect" : [ 164.0, 336.0, 73.0, 18.0 ]
				}

			}
, 			{
				"box" : 				{
					"maxclass" : "newobj",
					"text" : "scale 0. 1. 0. 1.",
					"id" : "obj-53",
					"fontname" : "Arial Bold",
					"fontsize" : 10.0,
					"numinlets" : 6,
					"numoutlets" : 1,
					"outlettype" : [ "" ],
					"patching_rect" : [ 0.0, 420.0, 163.5, 18.0 ]
				}

			}
, 			{
				"box" : 				{
					"maxclass" : "newobj",
					"text" : "live.remote~",
					"color" : [ 0.984314, 0.819608, 0.05098, 1.0 ],
					"id" : "obj-36",
					"fontname" : "Arial Bold",
					"fontsize" : 10.0,
					"numinlets" : 2,
					"numoutlets" : 0,
					"patching_rect" : [ 488.0, 448.0, 75.0, 18.0 ],
					"saved_object_attributes" : 					{
						"_persistence" : 0
					}

				}

			}
, 			{
				"box" : 				{
					"maxclass" : "newobj",
					"text" : "route min max path name id",
					"id" : "obj-29",
					"fontname" : "Arial Bold",
					"fontsize" : 10.0,
					"numinlets" : 1,
					"numoutlets" : 6,
					"outlettype" : [ "", "", "", "", "", "" ],
					"patching_rect" : [ 88.0, 180.0, 159.0, 18.0 ]
				}

			}
, 			{
				"box" : 				{
					"maxclass" : "newobj",
					"text" : "t b l",
					"id" : "obj-28",
					"fontname" : "Arial Bold",
					"fontsize" : 10.0,
					"numinlets" : 1,
					"numoutlets" : 2,
					"outlettype" : [ "bang", "" ],
					"patching_rect" : [ 88.0, 76.0, 211.0, 18.0 ]
				}

			}
, 			{
				"box" : 				{
					"maxclass" : "message",
					"text" : "getid",
					"id" : "obj-26",
					"fontname" : "Arial Bold",
					"fontsize" : 10.0,
					"numinlets" : 2,
					"numoutlets" : 1,
					"outlettype" : [ "" ],
					"patching_rect" : [ 88.0, 100.0, 34.0, 16.0 ]
				}

			}
, 			{
				"box" : 				{
					"maxclass" : "newobj",
					"text" : "live.object",
					"color" : [ 0.984314, 0.819608, 0.05098, 1.0 ],
					"id" : "obj-18",
					"fontname" : "Arial Bold",
					"fontsize" : 10.0,
					"numinlets" : 2,
					"numoutlets" : 1,
					"outlettype" : [ "" ],
					"patching_rect" : [ 88.0, 156.0, 211.0, 18.0 ],
					"saved_object_attributes" : 					{
						"_persistence" : 1
					}

				}

			}
, 			{
				"box" : 				{
					"maxclass" : "inlet",
					"id" : "obj-93",
					"numinlets" : 0,
					"numoutlets" : 1,
					"outlettype" : [ "" ],
					"patching_rect" : [ 0.0, 4.0, 25.0, 25.0 ],
					"comment" : ""
				}

			}
, 			{
				"box" : 				{
					"maxclass" : "inlet",
					"id" : "obj-94",
					"numinlets" : 0,
					"numoutlets" : 1,
					"outlettype" : [ "" ],
					"patching_rect" : [ 88.0, 4.0, 25.0, 25.0 ],
					"comment" : ""
				}

			}
, 			{
				"box" : 				{
					"maxclass" : "outlet",
					"id" : "obj-96",
					"numinlets" : 1,
					"numoutlets" : 0,
					"patching_rect" : [ 164.0, 508.0, 25.0, 25.0 ],
					"comment" : "Output names with prepended markers for [route]"
				}

			}
 ],
		"lines" : [ 			{
				"patchline" : 				{
					"source" : [ "obj-29", 1 ],
					"destination" : [ "obj-53", 4 ],
					"hidden" : 0,
					"color" : [ 0.478431, 0.709804, 0.317647, 1.0 ],
					"midpoints" : [  ]
				}

			}
, 			{
				"patchline" : 				{
					"source" : [ "obj-29", 0 ],
					"destination" : [ "obj-53", 3 ],
					"hidden" : 0,
					"color" : [ 0.87451, 0.25098, 0.717647, 1.0 ],
					"midpoints" : [ 97.5, 328.5, 96.199997, 328.5 ]
				}

			}
, 			{
				"patchline" : 				{
					"source" : [ "obj-7", 0 ],
					"destination" : [ "obj-28", 0 ],
					"hidden" : 0,
					"midpoints" : [  ]
				}

			}
, 			{
				"patchline" : 				{
					"source" : [ "obj-6", 0 ],
					"destination" : [ "obj-7", 0 ],
					"hidden" : 0,
					"midpoints" : [  ]
				}

			}
, 			{
				"patchline" : 				{
					"source" : [ "obj-94", 0 ],
					"destination" : [ "obj-6", 0 ],
					"hidden" : 0,
					"midpoints" : [  ]
				}

			}
, 			{
				"patchline" : 				{
					"source" : [ "obj-5", 0 ],
					"destination" : [ "obj-96", 0 ],
					"hidden" : 0,
					"midpoints" : [  ]
				}

			}
, 			{
				"patchline" : 				{
					"source" : [ "obj-34", 0 ],
					"destination" : [ "obj-5", 0 ],
					"hidden" : 0,
					"midpoints" : [  ]
				}

			}
, 			{
				"patchline" : 				{
					"source" : [ "obj-4", 0 ],
					"destination" : [ "obj-96", 0 ],
					"hidden" : 0,
					"midpoints" : [  ]
				}

			}
, 			{
				"patchline" : 				{
					"source" : [ "obj-74", 0 ],
					"destination" : [ "obj-4", 0 ],
					"hidden" : 0,
					"midpoints" : [  ]
				}

			}
, 			{
				"patchline" : 				{
					"source" : [ "obj-1", 0 ],
					"destination" : [ "obj-96", 0 ],
					"hidden" : 0,
					"midpoints" : [  ]
				}

			}
, 			{
				"patchline" : 				{
					"source" : [ "obj-29", 3 ],
					"destination" : [ "obj-1", 0 ],
					"hidden" : 0,
					"midpoints" : [  ]
				}

			}
, 			{
				"patchline" : 				{
					"source" : [ "obj-63", 0 ],
					"destination" : [ "obj-52", 0 ],
					"hidden" : 0,
					"midpoints" : [ 197.5, 252.0, 306.5, 252.0, 306.5, 102.0, 125.5, 102.0 ]
				}

			}
, 			{
				"patchline" : 				{
					"source" : [ "obj-52", 0 ],
					"destination" : [ "obj-3", 0 ],
					"hidden" : 0,
					"midpoints" : [  ]
				}

			}
, 			{
				"patchline" : 				{
					"source" : [ "obj-59", 0 ],
					"destination" : [ "obj-63", 0 ],
					"hidden" : 0,
					"midpoints" : [  ]
				}

			}
, 			{
				"patchline" : 				{
					"source" : [ "obj-29", 4 ],
					"destination" : [ "obj-59", 0 ],
					"hidden" : 0,
					"midpoints" : [  ]
				}

			}
, 			{
				"patchline" : 				{
					"source" : [ "obj-18", 0 ],
					"destination" : [ "obj-32", 0 ],
					"hidden" : 0,
					"color" : [ 0.67451, 0.819608, 0.572549, 1.0 ],
					"midpoints" : [ 97.5, 176.5, 265.5, 176.5 ]
				}

			}
, 			{
				"patchline" : 				{
					"source" : [ "obj-29", 4 ],
					"destination" : [ "obj-21", 0 ],
					"hidden" : 0,
					"color" : [ 0.976471, 0.823529, 0.054902, 1.0 ],
					"midpoints" : [ 209.5, 200.5, 233.5, 200.5 ]
				}

			}
, 			{
				"patchline" : 				{
					"source" : [ "obj-21", 0 ],
					"destination" : [ "obj-36", 1 ],
					"hidden" : 0,
					"color" : [ 0.984314, 0.819608, 0.05098, 1.0 ],
					"midpoints" : [ 233.5, 256.5, 553.5, 256.5 ]
				}

			}
, 			{
				"patchline" : 				{
					"source" : [ "obj-18", 0 ],
					"destination" : [ "obj-29", 0 ],
					"hidden" : 0,
					"color" : [ 0.984314, 0.819608, 0.05098, 1.0 ],
					"midpoints" : [ 97.5, 175.0, 97.5, 175.0 ]
				}

			}
, 			{
				"patchline" : 				{
					"source" : [ "obj-29", 2 ],
					"destination" : [ "obj-72", 0 ],
					"hidden" : 0,
					"color" : [ 1.0, 0.34902, 0.0, 1.0 ],
					"midpoints" : [ 153.5, 260.5, 153.5, 260.5 ]
				}

			}
, 			{
				"patchline" : 				{
					"source" : [ "obj-8", 0 ],
					"destination" : [ "obj-26", 0 ],
					"hidden" : 0,
					"color" : [ 0.239216, 0.643137, 0.709804, 1.0 ],
					"midpoints" : [ 25.5, 96.5, 97.5, 96.5 ]
				}

			}
, 			{
				"patchline" : 				{
					"source" : [ "obj-72", 1 ],
					"destination" : [ "obj-2", 0 ],
					"hidden" : 0,
					"color" : [ 1.0, 0.34902, 0.0, 1.0 ],
					"midpoints" : [  ]
				}

			}
, 			{
				"patchline" : 				{
					"source" : [ "obj-74", 1 ],
					"destination" : [ "obj-48", 0 ],
					"hidden" : 0,
					"color" : [ 1.0, 0.34902, 0.0, 1.0 ],
					"midpoints" : [  ]
				}

			}
, 			{
				"patchline" : 				{
					"source" : [ "obj-2", 0 ],
					"destination" : [ "obj-74", 0 ],
					"hidden" : 0,
					"midpoints" : [  ]
				}

			}
, 			{
				"patchline" : 				{
					"source" : [ "obj-48", 0 ],
					"destination" : [ "obj-34", 0 ],
					"hidden" : 0,
					"color" : [ 1.0, 0.34902, 0.0, 1.0 ],
					"midpoints" : [  ]
				}

			}
, 			{
				"patchline" : 				{
					"source" : [ "obj-3", 0 ],
					"destination" : [ "obj-18", 0 ],
					"hidden" : 0,
					"midpoints" : [  ]
				}

			}
, 			{
				"patchline" : 				{
					"source" : [ "obj-26", 0 ],
					"destination" : [ "obj-3", 0 ],
					"hidden" : 0,
					"midpoints" : [  ]
				}

			}
, 			{
				"patchline" : 				{
					"source" : [ "obj-28", 1 ],
					"destination" : [ "obj-18", 1 ],
					"hidden" : 0,
					"color" : [ 0.984314, 0.819608, 0.05098, 1.0 ],
					"midpoints" : [  ]
				}

			}
, 			{
				"patchline" : 				{
					"source" : [ "obj-28", 0 ],
					"destination" : [ "obj-26", 0 ],
					"hidden" : 0,
					"midpoints" : [  ]
				}

			}
, 			{
				"patchline" : 				{
					"source" : [ "obj-53", 0 ],
					"destination" : [ "obj-36", 0 ],
					"hidden" : 0,
					"midpoints" : [ 9.5, 440.0, 497.5, 440.0 ]
				}

			}
, 			{
				"patchline" : 				{
					"source" : [ "obj-93", 0 ],
					"destination" : [ "obj-53", 0 ],
					"hidden" : 0,
					"midpoints" : [  ]
				}

			}
 ]
	}

}
