{
	"patcher" : 	{
		"fileversion" : 1,
		"rect" : [ 316.0, 52.0, 785.0, 607.0 ],
		"bglocked" : 0,
		"defrect" : [ 316.0, 52.0, 785.0, 607.0 ],
		"openrect" : [ 0.0, 0.0, 0.0, 0.0 ],
		"openinpresentation" : 1,
		"default_fontsize" : 10.0,
		"default_fontface" : 0,
		"default_fontname" : "Arial Bold",
		"gridonopen" : 0,
		"gridsize" : [ 8.0, 8.0 ],
		"gridsnaponopen" : 0,
		"toolbarvisible" : 1,
		"boxanimatetime" : 200,
		"imprint" : 0,
		"enablehscroll" : 1,
		"enablevscroll" : 1,
		"devicewidth" : 0.0,
		"boxes" : [ 			{
				"box" : 				{
					"maxclass" : "inlet",
					"id" : "obj-10",
					"numinlets" : 0,
					"numoutlets" : 1,
					"outlettype" : [ "" ],
					"patching_rect" : [ 72.0, 80.0, 25.0, 25.0 ],
					"comment" : ""
				}

			}
, 			{
				"box" : 				{
					"maxclass" : "newobj",
					"text" : "loadbang",
					"id" : "obj-6",
					"numinlets" : 1,
					"fontname" : "Arial Bold",
					"numoutlets" : 1,
					"outlettype" : [ "bang" ],
					"fontsize" : 10.0,
					"patching_rect" : [ 8.0, 88.0, 55.0, 18.0 ]
				}

			}
, 			{
				"box" : 				{
					"maxclass" : "newobj",
					"text" : "t i b",
					"id" : "obj-21",
					"numinlets" : 1,
					"fontname" : "Arial Bold",
					"numoutlets" : 2,
					"outlettype" : [ "int", "bang" ],
					"fontsize" : 10.0,
					"patching_rect" : [ 304.0, 400.0, 32.5, 18.0 ]
				}

			}
, 			{
				"box" : 				{
					"maxclass" : "newobj",
					"varname" : "M4L.api.SaveInteger",
					"text" : "M4L.api.SaveInteger",
					"color" : [ 0.545098, 0.85098, 0.592157, 1.0 ],
					"id" : "obj-20",
					"numinlets" : 1,
					"fontname" : "Arial Bold",
					"numoutlets" : 1,
					"outlettype" : [ "int" ],
					"fontsize" : 10.0,
					"patching_rect" : [ 304.0, 376.0, 112.0, 18.0 ]
				}

			}
, 			{
				"box" : 				{
					"maxclass" : "newobj",
					"text" : "prepend set",
					"id" : "obj-19",
					"numinlets" : 1,
					"fontname" : "Arial Bold",
					"numoutlets" : 1,
					"outlettype" : [ "" ],
					"fontsize" : 10.0,
					"patching_rect" : [ 136.0, 448.0, 68.0, 18.0 ]
				}

			}
, 			{
				"box" : 				{
					"maxclass" : "newobj",
					"text" : "int",
					"id" : "obj-18",
					"numinlets" : 2,
					"fontname" : "Arial Bold",
					"numoutlets" : 1,
					"outlettype" : [ "int" ],
					"fontsize" : 10.0,
					"patching_rect" : [ 136.0, 424.0, 32.5, 18.0 ]
				}

			}
, 			{
				"box" : 				{
					"maxclass" : "outlet",
					"id" : "obj-17",
					"numinlets" : 1,
					"numoutlets" : 0,
					"patching_rect" : [ 152.0, 376.0, 25.0, 25.0 ],
					"comment" : ""
				}

			}
, 			{
				"box" : 				{
					"maxclass" : "newobj",
					"text" : "prepend id",
					"id" : "obj-16",
					"numinlets" : 1,
					"fontname" : "Arial Bold",
					"numoutlets" : 1,
					"outlettype" : [ "" ],
					"fontsize" : 10.0,
					"patching_rect" : [ 152.0, 352.0, 62.0, 18.0 ]
				}

			}
, 			{
				"box" : 				{
					"maxclass" : "newobj",
					"text" : "zl mth",
					"id" : "obj-15",
					"numinlets" : 2,
					"fontname" : "Arial Bold",
					"numoutlets" : 2,
					"outlettype" : [ "", "" ],
					"fontsize" : 10.0,
					"patching_rect" : [ 152.0, 328.0, 39.0, 18.0 ]
				}

			}
, 			{
				"box" : 				{
					"maxclass" : "newobj",
					"text" : "t b i i",
					"id" : "obj-14",
					"numinlets" : 1,
					"fontname" : "Arial Bold",
					"numoutlets" : 3,
					"outlettype" : [ "bang", "int", "int" ],
					"fontsize" : 10.0,
					"patching_rect" : [ 152.0, 280.0, 58.0, 18.0 ]
				}

			}
, 			{
				"box" : 				{
					"maxclass" : "umenu",
					"presentation" : 1,
					"labelclick" : 1,
					"id" : "obj-13",
					"numinlets" : 1,
					"fontname" : "Arial Bold",
					"numoutlets" : 3,
					"outlettype" : [ "int", "", "" ],
					"presentation_rect" : [ 0.0, 0.0, 100.0, 18.0 ],
					"items" : "<empty>",
					"fontsize" : 10.0,
					"types" : [  ],
					"patching_rect" : [ 152.0, 256.0, 100.0, 18.0 ]
				}

			}
, 			{
				"box" : 				{
					"maxclass" : "message",
					"text" : "clear",
					"id" : "obj-11",
					"numinlets" : 2,
					"fontname" : "Arial Bold",
					"numoutlets" : 1,
					"outlettype" : [ "" ],
					"fontsize" : 10.0,
					"patching_rect" : [ 304.0, 208.0, 35.0, 16.0 ]
				}

			}
, 			{
				"box" : 				{
					"maxclass" : "message",
					"id" : "obj-8",
					"numinlets" : 2,
					"fontname" : "Arial Bold",
					"numoutlets" : 1,
					"outlettype" : [ "" ],
					"fontsize" : 10.0,
					"patching_rect" : [ 152.0, 304.0, 146.0, 16.0 ]
				}

			}
, 			{
				"box" : 				{
					"maxclass" : "newobj",
					"text" : "t b l",
					"id" : "obj-5",
					"numinlets" : 1,
					"fontname" : "Arial Bold",
					"numoutlets" : 2,
					"outlettype" : [ "bang", "" ],
					"fontsize" : 10.0,
					"patching_rect" : [ 136.0, 232.0, 34.5, 18.0 ]
				}

			}
, 			{
				"box" : 				{
					"maxclass" : "newobj",
					"text" : "zl delace",
					"id" : "obj-4",
					"numinlets" : 2,
					"fontname" : "Arial Bold",
					"numoutlets" : 2,
					"outlettype" : [ "", "" ],
					"fontsize" : 10.0,
					"patching_rect" : [ 240.0, 208.0, 58.0, 18.0 ]
				}

			}
, 			{
				"box" : 				{
					"maxclass" : "newobj",
					"text" : "t l l",
					"id" : "obj-3",
					"numinlets" : 1,
					"fontname" : "Arial Bold",
					"numoutlets" : 2,
					"outlettype" : [ "", "" ],
					"fontsize" : 10.0,
					"patching_rect" : [ 8.0, 184.0, 32.5, 18.0 ]
				}

			}
, 			{
				"box" : 				{
					"maxclass" : "comment",
					"prototypename" : "ML.patcher-summary",
					"text" : "Build a menu of all available tracks. ",
					"id" : "obj-49",
					"numinlets" : 1,
					"fontname" : "Arial Bold Italic",
					"numoutlets" : 0,
					"fontsize" : 11.0,
					"patching_rect" : [ 176.0, 16.0, 217.0, 19.0 ]
				}

			}
, 			{
				"box" : 				{
					"maxclass" : "comment",
					"prototypename" : "ML.subpatcher-title",
					"text" : "Select Track",
					"id" : "obj-2",
					"textcolor" : [ 0.3, 0.34, 0.4, 1.0 ],
					"numinlets" : 1,
					"fontname" : "Arial Bold Italic",
					"numoutlets" : 0,
					"frgb" : [ 0.3, 0.34, 0.4, 1.0 ],
					"fontsize" : 24.0,
					"patching_rect" : [ 8.0, 8.0, 167.0, 34.0 ]
				}

			}
, 			{
				"box" : 				{
					"maxclass" : "comment",
					"prototypename" : "ML.patcher-story",
					"text" : "Creates a llist of all available tracks and fills it into an ubumenu. Use this patch inside a bpatcher object to display the menu. Outputs the id of the selected track",
					"linecount" : 2,
					"id" : "obj-50",
					"numinlets" : 1,
					"fontname" : "Arial Italic",
					"numoutlets" : 0,
					"fontsize" : 11.0,
					"patching_rect" : [ 8.0, 40.0, 527.0, 32.0 ]
				}

			}
, 			{
				"box" : 				{
					"maxclass" : "newobj",
					"text" : "t b b",
					"id" : "obj-1",
					"numinlets" : 1,
					"fontname" : "Arial Bold",
					"numoutlets" : 2,
					"outlettype" : [ "bang", "bang" ],
					"fontsize" : 10.0,
					"patching_rect" : [ 8.0, 136.0, 314.5, 18.0 ]
				}

			}
, 			{
				"box" : 				{
					"maxclass" : "newobj",
					"text" : "M4L.api.FG.GetTrackNames",
					"id" : "obj-12",
					"numinlets" : 1,
					"fontname" : "Arial Bold",
					"numoutlets" : 2,
					"outlettype" : [ "", "" ],
					"fontsize" : 10.0,
					"patching_rect" : [ 8.0, 208.0, 147.0, 18.0 ]
				}

			}
, 			{
				"box" : 				{
					"maxclass" : "button",
					"id" : "obj-9",
					"numinlets" : 1,
					"numoutlets" : 1,
					"outlettype" : [ "bang" ],
					"patching_rect" : [ 8.0, 112.0, 20.0, 20.0 ]
				}

			}
, 			{
				"box" : 				{
					"maxclass" : "newobj",
					"text" : "M4L.api.GetAllTrackIds",
					"id" : "obj-7",
					"numinlets" : 1,
					"fontname" : "Arial Bold",
					"numoutlets" : 1,
					"outlettype" : [ "" ],
					"fontsize" : 10.0,
					"patching_rect" : [ 8.0, 160.0, 122.0, 18.0 ]
				}

			}
 ],
		"lines" : [ 			{
				"patchline" : 				{
					"source" : [ "obj-9", 0 ],
					"destination" : [ "obj-1", 0 ],
					"hidden" : 0,
					"midpoints" : [  ]
				}

			}
, 			{
				"patchline" : 				{
					"source" : [ "obj-1", 0 ],
					"destination" : [ "obj-7", 0 ],
					"hidden" : 0,
					"midpoints" : [  ]
				}

			}
, 			{
				"patchline" : 				{
					"source" : [ "obj-7", 0 ],
					"destination" : [ "obj-3", 0 ],
					"hidden" : 0,
					"midpoints" : [  ]
				}

			}
, 			{
				"patchline" : 				{
					"source" : [ "obj-3", 0 ],
					"destination" : [ "obj-12", 0 ],
					"hidden" : 0,
					"midpoints" : [  ]
				}

			}
, 			{
				"patchline" : 				{
					"source" : [ "obj-3", 1 ],
					"destination" : [ "obj-4", 0 ],
					"hidden" : 0,
					"midpoints" : [ 31.0, 204.5, 249.5, 204.5 ]
				}

			}
, 			{
				"patchline" : 				{
					"source" : [ "obj-12", 1 ],
					"destination" : [ "obj-5", 0 ],
					"hidden" : 0,
					"midpoints" : [  ]
				}

			}
, 			{
				"patchline" : 				{
					"source" : [ "obj-4", 1 ],
					"destination" : [ "obj-8", 1 ],
					"hidden" : 0,
					"midpoints" : [  ]
				}

			}
, 			{
				"patchline" : 				{
					"source" : [ "obj-1", 1 ],
					"destination" : [ "obj-11", 0 ],
					"hidden" : 0,
					"midpoints" : [  ]
				}

			}
, 			{
				"patchline" : 				{
					"source" : [ "obj-11", 0 ],
					"destination" : [ "obj-13", 0 ],
					"hidden" : 0,
					"midpoints" : [ 313.5, 252.5, 161.5, 252.5 ]
				}

			}
, 			{
				"patchline" : 				{
					"source" : [ "obj-5", 1 ],
					"destination" : [ "obj-13", 0 ],
					"hidden" : 0,
					"midpoints" : [  ]
				}

			}
, 			{
				"patchline" : 				{
					"source" : [ "obj-13", 0 ],
					"destination" : [ "obj-14", 0 ],
					"hidden" : 0,
					"midpoints" : [  ]
				}

			}
, 			{
				"patchline" : 				{
					"source" : [ "obj-14", 0 ],
					"destination" : [ "obj-8", 0 ],
					"hidden" : 0,
					"midpoints" : [  ]
				}

			}
, 			{
				"patchline" : 				{
					"source" : [ "obj-8", 0 ],
					"destination" : [ "obj-15", 0 ],
					"hidden" : 0,
					"midpoints" : [  ]
				}

			}
, 			{
				"patchline" : 				{
					"source" : [ "obj-14", 1 ],
					"destination" : [ "obj-15", 1 ],
					"hidden" : 0,
					"midpoints" : [  ]
				}

			}
, 			{
				"patchline" : 				{
					"source" : [ "obj-15", 0 ],
					"destination" : [ "obj-16", 0 ],
					"hidden" : 0,
					"midpoints" : [  ]
				}

			}
, 			{
				"patchline" : 				{
					"source" : [ "obj-16", 0 ],
					"destination" : [ "obj-17", 0 ],
					"hidden" : 0,
					"midpoints" : [  ]
				}

			}
, 			{
				"patchline" : 				{
					"source" : [ "obj-5", 0 ],
					"destination" : [ "obj-18", 0 ],
					"hidden" : 0,
					"midpoints" : [  ]
				}

			}
, 			{
				"patchline" : 				{
					"source" : [ "obj-18", 0 ],
					"destination" : [ "obj-19", 0 ],
					"hidden" : 0,
					"midpoints" : [  ]
				}

			}
, 			{
				"patchline" : 				{
					"source" : [ "obj-14", 2 ],
					"destination" : [ "obj-20", 0 ],
					"hidden" : 0,
					"midpoints" : [ 200.5, 299.5, 313.5, 299.5 ]
				}

			}
, 			{
				"patchline" : 				{
					"source" : [ "obj-20", 0 ],
					"destination" : [ "obj-21", 0 ],
					"hidden" : 0,
					"midpoints" : [  ]
				}

			}
, 			{
				"patchline" : 				{
					"source" : [ "obj-21", 0 ],
					"destination" : [ "obj-18", 1 ],
					"hidden" : 0,
					"midpoints" : [ 313.5, 420.5, 159.0, 420.5 ]
				}

			}
, 			{
				"patchline" : 				{
					"source" : [ "obj-21", 1 ],
					"destination" : [ "obj-9", 0 ],
					"hidden" : 0,
					"midpoints" : [ 327.0, 427.0, 421.25, 427.0, 421.25, 110.0, 17.5, 110.0 ]
				}

			}
, 			{
				"patchline" : 				{
					"source" : [ "obj-19", 0 ],
					"destination" : [ "obj-13", 0 ],
					"hidden" : 0,
					"midpoints" : [ 145.5, 475.0, 106.5, 475.0, 106.5, 252.0, 161.5, 252.0 ]
				}

			}
, 			{
				"patchline" : 				{
					"source" : [ "obj-6", 0 ],
					"destination" : [ "obj-9", 0 ],
					"hidden" : 0,
					"midpoints" : [  ]
				}

			}
, 			{
				"patchline" : 				{
					"source" : [ "obj-10", 0 ],
					"destination" : [ "obj-9", 0 ],
					"hidden" : 0,
					"midpoints" : [ 81.5, 108.0, 17.5, 108.0 ]
				}

			}
 ],
		"parameters" : 		{
			"obj-20::obj-19" : [ "saved-int", "saved-int", 0 ]
		}

	}

}
