{
	"patcher" : 	{
		"fileversion" : 1,
		"rect" : [ 29.0, 67.0, 640.0, 480.0 ],
		"bglocked" : 0,
		"defrect" : [ 29.0, 67.0, 640.0, 480.0 ],
		"openrect" : [ 0.0, 0.0, 0.0, 0.0 ],
		"openinpresentation" : 0,
		"default_fontsize" : 10.0,
		"default_fontface" : 0,
		"default_fontname" : "Arial Bold",
		"gridonopen" : 0,
		"gridsize" : [ 8.0, 8.0 ],
		"gridsnaponopen" : 0,
		"toolbarvisible" : 1,
		"boxanimatetime" : 200,
		"imprint" : 0,
		"enablehscroll" : 1,
		"enablevscroll" : 1,
		"devicewidth" : 0.0,
		"boxes" : [ 			{
				"box" : 				{
					"maxclass" : "outlet",
					"numinlets" : 1,
					"numoutlets" : 0,
					"patching_rect" : [ 288.0, 432.0, 25.0, 25.0 ],
					"id" : "obj-29",
					"comment" : ""
				}

			}
, 			{
				"box" : 				{
					"maxclass" : "outlet",
					"numinlets" : 1,
					"numoutlets" : 0,
					"patching_rect" : [ 152.0, 432.0, 25.0, 25.0 ],
					"id" : "obj-28",
					"comment" : ""
				}

			}
, 			{
				"box" : 				{
					"maxclass" : "message",
					"numinlets" : 2,
					"numoutlets" : 1,
					"patching_rect" : [ 152.0, 408.0, 136.0, 16.0 ],
					"id" : "obj-27",
					"fontname" : "Arial Bold",
					"outlettype" : [ "" ],
					"fontsize" : 10.0
				}

			}
, 			{
				"box" : 				{
					"maxclass" : "message",
					"numinlets" : 2,
					"numoutlets" : 1,
					"patching_rect" : [ 288.0, 384.0, 136.0, 16.0 ],
					"id" : "obj-26",
					"fontname" : "Arial Bold",
					"outlettype" : [ "" ],
					"fontsize" : 10.0
				}

			}
, 			{
				"box" : 				{
					"maxclass" : "newobj",
					"text" : "append \\,",
					"numinlets" : 1,
					"numoutlets" : 1,
					"patching_rect" : [ 288.0, 352.0, 55.0, 18.0 ],
					"id" : "obj-24",
					"fontname" : "Arial Bold",
					"outlettype" : [ "" ],
					"fontsize" : 10.0
				}

			}
, 			{
				"box" : 				{
					"maxclass" : "newobj",
					"text" : "prepend append",
					"numinlets" : 1,
					"numoutlets" : 1,
					"patching_rect" : [ 288.0, 328.0, 89.0, 18.0 ],
					"id" : "obj-22",
					"fontname" : "Arial Bold",
					"outlettype" : [ "" ],
					"fontsize" : 10.0
				}

			}
, 			{
				"box" : 				{
					"maxclass" : "message",
					"text" : "set",
					"numinlets" : 2,
					"numoutlets" : 1,
					"patching_rect" : [ 424.0, 160.0, 32.5, 16.0 ],
					"id" : "obj-21",
					"fontname" : "Arial Bold",
					"outlettype" : [ "" ],
					"fontsize" : 10.0
				}

			}
, 			{
				"box" : 				{
					"maxclass" : "newobj",
					"text" : "prepend append",
					"numinlets" : 1,
					"numoutlets" : 1,
					"patching_rect" : [ 152.0, 304.0, 89.0, 18.0 ],
					"id" : "obj-19",
					"fontname" : "Arial Bold",
					"outlettype" : [ "" ],
					"fontsize" : 10.0
				}

			}
, 			{
				"box" : 				{
					"maxclass" : "newobj",
					"text" : "route name",
					"numinlets" : 1,
					"numoutlets" : 2,
					"patching_rect" : [ 152.0, 280.0, 65.0, 18.0 ],
					"id" : "obj-18",
					"fontname" : "Arial Bold",
					"outlettype" : [ "", "" ],
					"fontsize" : 10.0
				}

			}
, 			{
				"box" : 				{
					"maxclass" : "newobj",
					"text" : "live.object",
					"color" : [ 0.984314, 0.819608, 0.05098, 1.0 ],
					"numinlets" : 2,
					"numoutlets" : 1,
					"patching_rect" : [ 152.0, 256.0, 63.0, 18.0 ],
					"id" : "obj-17",
					"fontname" : "Arial Bold",
					"outlettype" : [ "" ],
					"fontsize" : 10.0,
					"saved_object_attributes" : 					{
						"_persistence" : 0
					}

				}

			}
, 			{
				"box" : 				{
					"maxclass" : "newobj",
					"text" : "prepend id",
					"numinlets" : 1,
					"numoutlets" : 1,
					"patching_rect" : [ 240.0, 232.0, 62.0, 18.0 ],
					"id" : "obj-16",
					"fontname" : "Arial Bold",
					"outlettype" : [ "" ],
					"fontsize" : 10.0
				}

			}
, 			{
				"box" : 				{
					"maxclass" : "message",
					"text" : "get name",
					"numinlets" : 2,
					"numoutlets" : 1,
					"patching_rect" : [ 152.0, 232.0, 55.0, 16.0 ],
					"id" : "obj-15",
					"fontname" : "Arial Bold",
					"outlettype" : [ "" ],
					"fontsize" : 10.0
				}

			}
, 			{
				"box" : 				{
					"maxclass" : "message",
					"text" : "1",
					"numinlets" : 2,
					"numoutlets" : 1,
					"patching_rect" : [ 224.0, 160.0, 32.5, 16.0 ],
					"id" : "obj-13",
					"fontname" : "Arial Bold",
					"outlettype" : [ "" ],
					"fontsize" : 10.0
				}

			}
, 			{
				"box" : 				{
					"maxclass" : "newobj",
					"text" : "/ 2",
					"numinlets" : 2,
					"numoutlets" : 1,
					"patching_rect" : [ 112.0, 184.0, 32.5, 18.0 ],
					"id" : "obj-11",
					"fontname" : "Arial Bold",
					"outlettype" : [ "int" ],
					"fontsize" : 10.0
				}

			}
, 			{
				"box" : 				{
					"maxclass" : "newobj",
					"text" : "zl 999 len",
					"numinlets" : 2,
					"numoutlets" : 2,
					"patching_rect" : [ 112.0, 160.0, 57.0, 18.0 ],
					"id" : "obj-10",
					"fontname" : "Arial Bold",
					"outlettype" : [ "", "" ],
					"fontsize" : 10.0
				}

			}
, 			{
				"box" : 				{
					"maxclass" : "newobj",
					"text" : "sel",
					"numinlets" : 2,
					"numoutlets" : 2,
					"patching_rect" : [ 64.0, 256.0, 66.5, 18.0 ],
					"id" : "obj-9",
					"fontname" : "Arial Bold",
					"outlettype" : [ "bang", "" ],
					"fontsize" : 10.0
				}

			}
, 			{
				"box" : 				{
					"maxclass" : "newobj",
					"text" : "counter",
					"numinlets" : 5,
					"numoutlets" : 4,
					"patching_rect" : [ 64.0, 232.0, 73.0, 18.0 ],
					"id" : "obj-8",
					"fontname" : "Arial Bold",
					"outlettype" : [ "int", "", "", "int" ],
					"fontsize" : 10.0
				}

			}
, 			{
				"box" : 				{
					"maxclass" : "newobj",
					"text" : "t b b i",
					"numinlets" : 1,
					"numoutlets" : 3,
					"patching_rect" : [ 64.0, 208.0, 195.0, 18.0 ],
					"id" : "obj-7",
					"fontname" : "Arial Bold",
					"outlettype" : [ "bang", "bang", "int" ],
					"fontsize" : 10.0
				}

			}
, 			{
				"box" : 				{
					"maxclass" : "newobj",
					"text" : "route id",
					"numinlets" : 1,
					"numoutlets" : 2,
					"patching_rect" : [ 32.0, 184.0, 51.0, 18.0 ],
					"id" : "obj-6",
					"fontname" : "Arial Bold",
					"outlettype" : [ "", "" ],
					"fontsize" : 10.0
				}

			}
, 			{
				"box" : 				{
					"maxclass" : "newobj",
					"text" : "iter",
					"numinlets" : 1,
					"numoutlets" : 1,
					"patching_rect" : [ 32.0, 160.0, 26.0, 18.0 ],
					"id" : "obj-5",
					"fontname" : "Arial Bold",
					"outlettype" : [ "" ],
					"fontsize" : 10.0
				}

			}
, 			{
				"box" : 				{
					"maxclass" : "newobj",
					"text" : "t l l b b",
					"numinlets" : 1,
					"numoutlets" : 4,
					"patching_rect" : [ 32.0, 136.0, 306.5, 18.0 ],
					"id" : "obj-4",
					"fontname" : "Arial Bold",
					"outlettype" : [ "", "", "bang", "bang" ],
					"fontsize" : 10.0
				}

			}
, 			{
				"box" : 				{
					"maxclass" : "inlet",
					"numinlets" : 0,
					"numoutlets" : 1,
					"patching_rect" : [ 32.0, 104.0, 25.0, 25.0 ],
					"id" : "obj-3",
					"outlettype" : [ "" ],
					"comment" : ""
				}

			}
, 			{
				"box" : 				{
					"maxclass" : "comment",
					"prototypename" : "ML.patcher-summary",
					"text" : "Generate lists of track names.",
					"numinlets" : 1,
					"numoutlets" : 0,
					"patching_rect" : [ 255.0, 39.0, 209.0, 19.0 ],
					"id" : "obj-49",
					"fontname" : "Arial Bold Italic",
					"fontsize" : 11.0
				}

			}
, 			{
				"box" : 				{
					"maxclass" : "comment",
					"prototypename" : "ML.subpatcher-title",
					"text" : "Get Track Names",
					"numinlets" : 1,
					"numoutlets" : 0,
					"patching_rect" : [ 31.0, 31.0, 226.0, 34.0 ],
					"id" : "obj-23",
					"fontname" : "Arial Bold Italic",
					"textcolor" : [ 0.3, 0.34, 0.4, 1.0 ],
					"frgb" : [ 0.3, 0.34, 0.4, 1.0 ],
					"fontsize" : 24.0
				}

			}
, 			{
				"box" : 				{
					"maxclass" : "comment",
					"prototypename" : "ML.patcher-story",
					"text" : "Will take a list of track ids as input and generate two lists of device names, one with no special format and the other ready to be input into an ubumenu.",
					"linecount" : 2,
					"numinlets" : 1,
					"numoutlets" : 0,
					"patching_rect" : [ 31.0, 63.0, 439.0, 32.0 ],
					"id" : "obj-50",
					"fontname" : "Arial Italic",
					"fontsize" : 11.0
				}

			}
 ],
		"lines" : [ 			{
				"patchline" : 				{
					"source" : [ "obj-26", 0 ],
					"destination" : [ "obj-29", 0 ],
					"hidden" : 0,
					"midpoints" : [  ]
				}

			}
, 			{
				"patchline" : 				{
					"source" : [ "obj-27", 0 ],
					"destination" : [ "obj-28", 0 ],
					"hidden" : 0,
					"midpoints" : [  ]
				}

			}
, 			{
				"patchline" : 				{
					"source" : [ "obj-9", 0 ],
					"destination" : [ "obj-26", 0 ],
					"hidden" : 0,
					"midpoints" : [ 73.5, 377.0, 297.5, 377.0 ]
				}

			}
, 			{
				"patchline" : 				{
					"source" : [ "obj-9", 0 ],
					"destination" : [ "obj-27", 0 ],
					"hidden" : 0,
					"midpoints" : [ 73.5, 403.0, 161.5, 403.0 ]
				}

			}
, 			{
				"patchline" : 				{
					"source" : [ "obj-21", 0 ],
					"destination" : [ "obj-27", 0 ],
					"hidden" : 0,
					"midpoints" : [ 433.5, 403.5, 161.5, 403.5 ]
				}

			}
, 			{
				"patchline" : 				{
					"source" : [ "obj-21", 0 ],
					"destination" : [ "obj-26", 0 ],
					"hidden" : 0,
					"midpoints" : [ 433.5, 377.5, 297.5, 377.5 ]
				}

			}
, 			{
				"patchline" : 				{
					"source" : [ "obj-19", 0 ],
					"destination" : [ "obj-27", 0 ],
					"hidden" : 0,
					"midpoints" : [  ]
				}

			}
, 			{
				"patchline" : 				{
					"source" : [ "obj-24", 0 ],
					"destination" : [ "obj-26", 0 ],
					"hidden" : 0,
					"midpoints" : [  ]
				}

			}
, 			{
				"patchline" : 				{
					"source" : [ "obj-22", 0 ],
					"destination" : [ "obj-24", 0 ],
					"hidden" : 0,
					"midpoints" : [  ]
				}

			}
, 			{
				"patchline" : 				{
					"source" : [ "obj-19", 0 ],
					"destination" : [ "obj-22", 0 ],
					"hidden" : 0,
					"midpoints" : [ 161.5, 324.5, 297.5, 324.5 ]
				}

			}
, 			{
				"patchline" : 				{
					"source" : [ "obj-4", 3 ],
					"destination" : [ "obj-21", 0 ],
					"hidden" : 0,
					"midpoints" : [ 329.0, 156.5, 433.5, 156.5 ]
				}

			}
, 			{
				"patchline" : 				{
					"source" : [ "obj-18", 0 ],
					"destination" : [ "obj-19", 0 ],
					"hidden" : 0,
					"midpoints" : [  ]
				}

			}
, 			{
				"patchline" : 				{
					"source" : [ "obj-17", 0 ],
					"destination" : [ "obj-18", 0 ],
					"hidden" : 0,
					"midpoints" : [  ]
				}

			}
, 			{
				"patchline" : 				{
					"source" : [ "obj-16", 0 ],
					"destination" : [ "obj-17", 1 ],
					"hidden" : 0,
					"midpoints" : [ 249.5, 252.5, 205.5, 252.5 ]
				}

			}
, 			{
				"patchline" : 				{
					"source" : [ "obj-15", 0 ],
					"destination" : [ "obj-17", 0 ],
					"hidden" : 0,
					"midpoints" : [  ]
				}

			}
, 			{
				"patchline" : 				{
					"source" : [ "obj-7", 1 ],
					"destination" : [ "obj-15", 0 ],
					"hidden" : 0,
					"midpoints" : [  ]
				}

			}
, 			{
				"patchline" : 				{
					"source" : [ "obj-7", 2 ],
					"destination" : [ "obj-16", 0 ],
					"hidden" : 0,
					"midpoints" : [  ]
				}

			}
, 			{
				"patchline" : 				{
					"source" : [ "obj-13", 0 ],
					"destination" : [ "obj-8", 2 ],
					"hidden" : 0,
					"midpoints" : [  ]
				}

			}
, 			{
				"patchline" : 				{
					"source" : [ "obj-4", 1 ],
					"destination" : [ "obj-10", 0 ],
					"hidden" : 0,
					"midpoints" : [ 137.333328, 156.5, 121.5, 156.5 ]
				}

			}
, 			{
				"patchline" : 				{
					"source" : [ "obj-4", 2 ],
					"destination" : [ "obj-13", 0 ],
					"hidden" : 0,
					"midpoints" : [  ]
				}

			}
, 			{
				"patchline" : 				{
					"source" : [ "obj-11", 0 ],
					"destination" : [ "obj-9", 1 ],
					"hidden" : 0,
					"midpoints" : [  ]
				}

			}
, 			{
				"patchline" : 				{
					"source" : [ "obj-10", 0 ],
					"destination" : [ "obj-11", 0 ],
					"hidden" : 0,
					"midpoints" : [  ]
				}

			}
, 			{
				"patchline" : 				{
					"source" : [ "obj-8", 0 ],
					"destination" : [ "obj-9", 0 ],
					"hidden" : 0,
					"midpoints" : [  ]
				}

			}
, 			{
				"patchline" : 				{
					"source" : [ "obj-7", 0 ],
					"destination" : [ "obj-8", 0 ],
					"hidden" : 0,
					"midpoints" : [  ]
				}

			}
, 			{
				"patchline" : 				{
					"source" : [ "obj-6", 1 ],
					"destination" : [ "obj-7", 0 ],
					"hidden" : 0,
					"midpoints" : [  ]
				}

			}
, 			{
				"patchline" : 				{
					"source" : [ "obj-5", 0 ],
					"destination" : [ "obj-6", 0 ],
					"hidden" : 0,
					"midpoints" : [  ]
				}

			}
, 			{
				"patchline" : 				{
					"source" : [ "obj-4", 0 ],
					"destination" : [ "obj-5", 0 ],
					"hidden" : 0,
					"midpoints" : [  ]
				}

			}
, 			{
				"patchline" : 				{
					"source" : [ "obj-3", 0 ],
					"destination" : [ "obj-4", 0 ],
					"hidden" : 0,
					"midpoints" : [  ]
				}

			}
 ]
	}

}
